<?xml version="1.0" encoding="UTF-8" standalone="no"?>
<!-- Created with Inkscape (http://www.inkscape.org/) -->

<svg
   version="1.1"
   id="svg1049"
   width="2560"
   height="1440"
   viewBox="0 0 2560 1440"
   sodipodi:docname="mountain-icon.svg"
   inkscape:version="1.2.2 (732a01da63, 2022-12-09)"
   xmlns:inkscape="http://www.inkscape.org/namespaces/inkscape"
   xmlns:sodipodi="http://sodipodi.sourceforge.net/DTD/sodipodi-0.dtd"
   xmlns="http://www.w3.org/2000/svg"
   xmlns:svg="http://www.w3.org/2000/svg">
  <defs
     id="defs1053">
    <clipPath
       clipPathUnits="userSpaceOnUse"
       id="clipPath1081">
      <path
         d="M 0,1080 H 1920 V 0 H 0 Z"
         id="path1079" />
    </clipPath>
  </defs>
  <sodipodi:namedview
     id="namedview1051"
     pagecolor="#ffffff"
     bordercolor="#000000"
     borderopacity="0.25"
     inkscape:showpageshadow="2"
     inkscape:pageopacity="0.0"
     inkscape:pagecheckerboard="0"
     inkscape:deskcolor="#d1d1d1"
     showgrid="false"
     inkscape:zoom="0.52382812"
     inkscape:cx="1245.6376"
     inkscape:cy="720.65623"
     inkscape:window-width="1920"
     inkscape:window-height="1001"
     inkscape:window-x="-9"
     inkscape:window-y="-9"
     inkscape:window-maximized="1"
     inkscape:current-layer="g1057">
    <inkscape:page
       x="0"
       y="0"
       id="page1055"
       width="2560"
       height="1440" />
  </sodipodi:namedview>
  <g
     id="g1057"
     inkscape:groupmode="layer"
     inkscape:label="Page 1"
     transform="matrix(1.3333333,0,0,-1.3333333,0,1440)">
    <g
       id="g1059"
       transform="translate(69.4087,326.2539)">
      <path
         d="m 0,0 532.394,468.507 112.564,-80.62 234.253,161.239 219.042,-261.633 174.93,-86.705 171.887,120.17 334.648,-415.269 -223.605,229.691 41.07,-100.395 -156.677,223.606 -91.267,-130.817 12.17,85.972 -217.522,-143.774 112.564,117.127 -86.704,40.309 42.59,-43.352 -82.14,43.352 -57.803,37.268 -196.225,255.549 -56.282,-65.409 41.071,13.691 -66.93,-73.014 13.69,-161.24 -45.634,146.028 -95.831,-83.662 -74.535,-69.211 -28.901,-88.986 -1.522,101.915 120.169,123.212 -123.211,-66.93 56.282,63.888 -83.662,86.704 -115.605,-155.155 97.352,57.803 -161.24,-203.832 21.296,67.719 -153.634,-140.732 59.324,92.789 z"
         style="fill:#000000;fill-opacity:1;fill-rule:nonzero;stroke:none"
         id="path1061" />
    </g>
    <g
       id="g1063"
       transform="translate(810.1973,651.7744)">
      <path
         d="m 0,0 -106.479,-89.746 -19.774,-66.93 z"
         style="fill:#000000;fill-opacity:1;fill-rule:nonzero;stroke:none"
         id="path1065" />
    </g>
    <g
       id="g1067"
       transform="translate(960,758.2534)">
      <path
         d="m 0,0 85.972,-167.324 -48.676,-50.929 h 76.057 l -63.888,-104.226 124.732,89.747 z"
         style="fill:#000000;fill-opacity:1;fill-rule:nonzero;stroke:none"
         id="path1069" />
    </g>
    <g
       id="g1071"
       transform="translate(1516,553.6621)">
      <path
         d="m 0,0 v -58.563 l 91.268,-92.79 z"
         style="fill:#000000;fill-opacity:1;fill-rule:nonzero;stroke:none"
         id="path1073" />
    </g>
    <g
       id="g1075">
      <g
         id="g1077"
         clip-path="url(#clipPath1081)">
        <g
           id="g1083"
           transform="translate(148.5068,330.8174)">
          <path
             d="m 0,0 c 0,0 92.789,-118.648 313.353,-106.479 0,0 208.394,3.041 406.14,73.014 0,0 375.719,92.788 538.479,42.591 0,0 290.535,-68.681 363.549,-116.481 0,0 -153.633,93.665 -222.084,101.27 l 6.591,17.746 -13.182,2.028 8.112,10.331 -1.014,4.374 -9.633,2.535 5.07,11.662 -5.07,6.085 -6.085,22.816 -7.606,-24.338 -3.55,-3.549 4.057,-11.155 -9.634,-4.056 5.07,-12.169 -10.14,-6.591 -23.831,3.042 5.07,16.732 -2.028,6.592 h -12.169 l 7.098,16.731 -1.013,5.579 -14.197,-0.507 9.633,16.732 -6.085,4.563 -7.098,27.887 c 0,0 -6.084,-26.366 -8.619,-28.901 -2.536,-2.535 -6.592,-3.549 -6.592,-3.549 l 5.07,-16.732 h -8.62 l -3.549,-4.564 7.606,-15.212 -14.198,-2.027 -0.506,-11.662 c 0,0 -176.451,29.408 -236.79,20.281 0,0 -192.168,-6.592 -278.873,-33.972 L 675.38,-12.17 673.353,3.549 658.648,3.042 l 9.634,15.211 -6.592,6.592 -8.112,0.507 8.112,12.675 -7.606,8.62 0.508,8.621 -6.085,7.605 0.507,13.183 -6.591,0.507 0.507,-13.69 c 0,0 -7.099,-8.113 -1.521,-17.747 l -8.113,-0.507 6.592,-19.774 -15.212,-1.522 10.648,-19.267 -15.718,-1.521 c 0,0 -5.07,-6.085 6.084,-19.267 v -2.537 l -14.704,1.522 c 0,0 -4.563,-16.732 -12.423,-14.197 v 11.155 l -10.394,0.507 5.578,15.719 -8.113,4.378 4.056,10.832 -4.563,3.549 L 576,39.042 570.93,12.676 c 0,0 -11.155,3.687 -0.507,-12.861 l -11.155,-3.872 8.62,-15.718 -14.705,-1.521 9.127,-17.24 -11.155,1.521 -8.113,-11.662 -56.281,-12.169 c 0,0 20.788,31.944 -0.507,30.423 h -14.197 c 0,0 28.394,30.054 0,30.238 h -9.127 c 0,0 19.267,32.635 1.014,28.579 l -5.07,-1.014 c 0,0 7.605,16.225 -1.015,19.267 l -5.07,24.338 -4.057,0.507 -4.563,-22.309 c 0,0 -13.69,-5.578 0,-16.733 l -0.507,-8.112 -11.155,4.563 -2.028,-10.648 10.648,-18.438 h -20.282 v -17.562 l 12.169,-14.197 -11.661,-3.042 c 0,0 -7.099,-21.296 -1.015,-29.916 l -5.07,0.507 c 0,0 3.549,34.479 -16.226,36 l 6.085,14.705 -6.085,5.07 -6.591,28.901 -3.549,0.507 -5.071,-30.423 c 0,0 -15.211,0.508 0,-14.704 l 1.522,-5.577 c 0,0 -26.367,7.605 -4.564,-19.774 0,0 -26.366,-7.099 -6.084,-22.31 0,0 -78.592,-10.648 -95.831,-6.592 0,0 18.76,26.873 -5.578,19.775 0,0 11.155,24.844 -4.056,22.817 0,0 3.549,20.788 -3.55,18.253 l -7.606,30.93 -6.084,-30.93 -5.577,0.507 c 0,0 0.507,-16.733 4.563,-18.253 0,0 -25.352,7.605 -4.563,-19.268 0,0 -27.381,5.577 -5.07,-25.352 l -1.522,-2.535 -11.155,9.633 -13.69,1.522 c 0,0 21.296,25.858 -3.549,25.351 l -4.057,-1.52 c 0,0 23.325,31.943 -2.535,25.858 l -5.577,-0.507 c 0,0 17.746,22.449 1.014,22.126 0,0 4.563,14.889 -3.55,15.396 l -3.042,18.253 -6.591,-18.253 c 0,0 -6.592,-6.453 0,-15.396 0,0 -20.789,-2.858 -1.015,-20.604 0,0 -36,0.507 -6.084,-26.366 0,0 -39.042,8.112 -8.62,-25.353 0,0 -168.844,45.127 -171.38,72.508"
             style="fill:#000000;fill-opacity:1;fill-rule:nonzero;stroke:none"
             id="path1085" />
        </g>
        <g
           id="g1087"
           transform="translate(854.3101,203.5488)">
          <path
             d="m 0,0 c 0,0 248.451,88.226 354.929,78.085 0,0 130.818,-12.169 144,-22.31 0,0 -175.436,22.31 -242.366,-40.563 0,0 117.634,56.586 273.803,24.236 0,0 110.535,-11.053 0,28.496 L 427.944,87.212 c 0,0 112.563,4.057 161.239,-7.099 l 248.45,-51.718 c 0,0 -141.971,63.887 -204.844,66.929 0,0 -195.719,35.493 -362.029,0 C 270.76,95.324 9.126,33.465 0,0"
             style="fill:#000000;fill-opacity:1;fill-rule:nonzero;stroke:none"
             id="path1089" />
        </g>
      </g>
    </g>
  </g>
</svg>
